<svg id="Group_2697" data-name="Group 2697" xmlns="http://www.w3.org/2000/svg" width="15" height="15.832" viewBox="0 0 15 15.832">
  <path id="Path_726" data-name="Path 726" d="M-31.932,98.734a4.16,4.16,0,0,1-4.156-4.156,4.16,4.16,0,0,1,4.156-4.155,4.16,4.16,0,0,1,4.155,4.155A4.16,4.16,0,0,1-31.932,98.734Zm0-7.608a3.456,3.456,0,0,0-3.453,3.452,3.457,3.457,0,0,0,3.453,3.453,3.456,3.456,0,0,0,3.452-3.453A3.456,3.456,0,0,0-31.932,91.127Z" transform="translate(39.205 -90.424)"/>
  <path id="Path_727" data-name="Path 727" d="M-25.525,109.636h-15v-.351a7.508,7.508,0,0,1,7.5-7.5,7.508,7.508,0,0,1,7.5,7.5Zm-14.289-.7h13.577a6.806,6.806,0,0,0-6.789-6.446A6.806,6.806,0,0,0-39.814,108.933Z" transform="translate(40.525 -93.803)"/>
</svg>
